<?xml version="1.0" encoding="UTF-8" standalone="no"?>
<svg
   width="45"
   height="32"
   viewBox="0 0 45 32"
   fill="none"
   version="1.1"
   id="svg10"
   sodipodi:docname="payment-3___5fdd63de0ea3cc36f1b3b1558c8a5226.svg"
   xmlns:inkscape="http://www.inkscape.org/namespaces/inkscape"
   xmlns:sodipodi="http://sodipodi.sourceforge.net/DTD/sodipodi-0.dtd"
   xmlns="http://www.w3.org/2000/svg"
   xmlns:svg="http://www.w3.org/2000/svg">
  <defs
     id="defs14" />
  <sodipodi:namedview
     id="namedview12"
     pagecolor="#ffffff"
     bordercolor="#000000"
     borderopacity="0.25"
     inkscape:showpageshadow="2"
     inkscape:pageopacity="0.0"
     inkscape:pagecheckerboard="0"
     inkscape:deskcolor="#d1d1d1" />
  <rect
     x="1.61927"
     y="1.54017"
     width="42.4833"
     height="29.6096"
     stroke="#444649"
     stroke-width="1.28737"
     id="rect2" />
  <path
     fill-rule="evenodd"
     clip-rule="evenodd"
     d="M23.0913 22.5623C21.567 23.8472 19.5896 24.6229 17.429 24.6229C12.6079 24.6229 8.69971 20.7611 8.69971 15.9975C8.69971 11.2338 12.6079 7.37207 17.429 7.37207C19.5897 7.37207 21.567 8.14773 23.0913 9.43262C24.6156 8.14774 26.5929 7.37208 28.7536 7.37208C33.5746 7.37208 37.4829 11.2338 37.4829 15.9975C37.4829 20.7612 33.5746 24.6229 28.7536 24.6229C26.5929 24.6229 24.6156 23.8472 23.0913 22.5623Z"
     fill="#444649"
     id="path4" />
  <path
     fill-rule="evenodd"
     clip-rule="evenodd"
     d="M23.0913 22.5624C24.9682 20.9803 26.1584 18.6262 26.1584 15.9975C26.1584 13.3687 24.9682 11.0146 23.0913 9.43255C24.6156 8.1477 26.5929 7.37207 28.7535 7.37207C33.5746 7.37207 37.4828 11.2338 37.4828 15.9975C37.4828 20.7611 33.5746 24.6229 28.7535 24.6229C26.5929 24.6229 24.6156 23.8472 23.0913 22.5624Z"
     fill="#8C8F94"
     id="path6" />
  <path
     fill-rule="evenodd"
     clip-rule="evenodd"
     d="M23.0914 22.5624C24.9683 20.9803 26.1584 18.6262 26.1584 15.9975C26.1584 13.3688 24.9683 11.0147 23.0914 9.43262C21.2145 11.0147 20.0244 13.3688 20.0244 15.9975C20.0244 18.6262 21.2145 20.9803 23.0914 22.5624Z"
     fill="#5A5D62"
     id="path8" />
</svg>
